<?xml version="1.0" encoding="utf-8"?>
<!-- Generator: Adobe Illustrator 26.3.1, SVG Export Plug-In . SVG Version: 6.00 Build 0)  -->
<svg version="1.1" xmlns="http://www.w3.org/2000/svg" xmlns:xlink="http://www.w3.org/1999/xlink" x="0px" y="0px"
	 viewBox="0 0 1474.02 1474.02" style="enable-background:new 0 0 1474.02 1474.02;" xml:space="preserve">
<style type="text/css">
	.st0{fill:#03944F;}
	.st1{fill:url(#SVGID_1_);}
	.st2{fill:url(#SVGID_00000060734232101239391290000017335992449223147166_);}
	.st3{fill:#D6DAD9;}
	.st4{fill:url(#SVGID_00000058579219878156803060000001171741405552416942_);}
	.st5{fill-rule:evenodd;clip-rule:evenodd;fill:#00543D;}
	.st6{fill:#01553D;}
	.st7{fill:url(#SVGID_00000170256709111063265770000001526235238760903816_);}
	.st8{fill:#005529;}
	.st9{fill:url(#SVGID_00000011720880956390762440000016720618020484592512_);}
	.st10{fill:url(#SVGID_00000028284525408495009830000017259212519885394592_);}
	.st11{fill:url(#SVGID_00000166651381652977448410000012205097930812038305_);}
	.st12{fill:#01553E;}
	.st13{fill:url(#SVGID_00000152986113246030417230000009766657101826079879_);}
	.st14{fill:#AF9669;}
	.st15{fill:url(#SVGID_00000060004231555139544010000005083137398428144816_);}
	.st16{fill:url(#SVGID_00000160165738214678553530000014507511389084223398_);}
	.st17{fill:url(#SVGID_00000140010370153535979860000006463113120381105818_);}
	.st18{fill:#EFB27B;}
	.st19{fill:#FFFFFF;}
	.st20{fill:#029338;}
	.st21{fill:url(#SVGID_00000098901381523366909240000003696753392269152443_);}
	.st22{fill:url(#SVGID_00000069394405511546080980000015593404464481648809_);}
	.st23{fill:url(#SVGID_00000152255087212007742270000017454135152317711295_);}
</style>
<g id="图层_2">
</g>
<g id="图层_1">
	<g>
		<g>
			<path class="st0" d="M1445.67,212.18c-107.4,99.5-189.14,186.17-244.81,260.4c-9.28,12.04-14.02,24.87-15.4,40.07
				c-18.17,221.12-150.84,413.02-280.54,448.95c-134.06,36.92-197.23,39.48-225.66,190.12c-78.37-274.03,72.85-551.81,269.49-641.44
				c58.43-26.66,65.54-98.12,191.7-90.81c20.72,1.18,38.89,14.81,54.49,1.38C1337.28,299.44,1420.8,216.72,1445.67,212.18
				L1445.67,212.18z"/>
			<linearGradient id="SVGID_1_" gradientUnits="userSpaceOnUse" x1="766.5228" y1="553.431" x2="1034.6252" y2="553.431">
				<stop  offset="0" style="stop-color:#06AC56"/>
				<stop  offset="0.109" style="stop-color:#0DAE5A"/>
				<stop  offset="0.2733" style="stop-color:#22B466"/>
				<stop  offset="0.4724" style="stop-color:#44BD7A"/>
				<stop  offset="0.699" style="stop-color:#73CA96"/>
				<stop  offset="0.9455" style="stop-color:#AFDAB9"/>
				<stop  offset="1" style="stop-color:#BDDEC1"/>
			</linearGradient>
			<path class="st1" d="M766.52,665.86c49.75-69.49,113.32-124.18,182.23-155.57c34.74-16,51.52-47.77,85.88-69.29
				c-25.66,25.07-41.26,56.06-46.79,92.98C933.94,543.46,860.11,587.48,766.52,665.86L766.52,665.86z"/>
			
				<linearGradient id="SVGID_00000065796591488274306520000009469255511731254181_" gradientUnits="userSpaceOnUse" x1="1027.3207" y1="726.5704" x2="1178.1584" y2="726.5704">
				<stop  offset="0" style="stop-color:#06AC56"/>
				<stop  offset="0.109" style="stop-color:#0DAE5A"/>
				<stop  offset="0.2733" style="stop-color:#22B466"/>
				<stop  offset="0.4724" style="stop-color:#44BD7A"/>
				<stop  offset="0.699" style="stop-color:#73CA96"/>
				<stop  offset="0.9455" style="stop-color:#AFDAB9"/>
				<stop  offset="1" style="stop-color:#BDDEC1"/>
			</linearGradient>
			<path style="fill:url(#SVGID_00000065796591488274306520000009469255511731254181_);" d="M1178.16,570.7
				c-22.31,126.55-80.55,239.08-150.84,311.73c50.15-62.38,90.22-149.45,109.77-246.58c21.72-16.59,35.34-38.5,40.87-65.15H1178.16z
				"/>
			<path class="st3" d="M1445.67,212.18c-9.28,20.72-148.59,164.99-212.76,251.26c-8.88,11.85-26.47,50.68-27.86,65.5
				c-19.54,220.91-162.53,401.28-292.43,441.15c-134.06,41.27-204.93,30.99-233.36,181.63c28.43-150.64,91.6-153.2,225.66-190.12
				c129.7-35.93,250.98-222.71,269.15-443.83c1.38-15.2,17.51-33.15,26.79-45.19C1256.53,398.35,1338.27,311.68,1445.67,212.18
				L1445.67,212.18z"/>
			
				<linearGradient id="SVGID_00000060019868715976820680000011140393879563690431_" gradientUnits="userSpaceOnUse" x1="1024.0391" y1="602.3987" x2="1391.6141" y2="242.0264">
				<stop  offset="0" style="stop-color:#06AC56"/>
				<stop  offset="0.0522" style="stop-color:#17B160"/>
				<stop  offset="0.2257" style="stop-color:#49BE7D"/>
				<stop  offset="0.397" style="stop-color:#73CA95"/>
				<stop  offset="0.5629" style="stop-color:#93D3A8"/>
				<stop  offset="0.7219" style="stop-color:#AAD9B6"/>
				<stop  offset="0.8709" style="stop-color:#B8DDBE"/>
				<stop  offset="1" style="stop-color:#BDDEC1"/>
			</linearGradient>
			<path style="fill:url(#SVGID_00000060019868715976820680000011140393879563690431_);" d="M1445.67,212.18
				c-107.4,99.5-189.14,186.17-244.81,260.4c-9.28,12.04-15.28,30.68-19.32,45.19c-11.01,39.57-10.08,85.47-10.08,85.47
				c-5.5,17.83-45.43,52.15-116.7,65.97c16.78-59.42,14.81-106.41-6.12-141.16c-23.1,4.15-44.03,19.15-62.78,45.01
				c-1.78-54.68,14.41-98.71,48.76-132.07c23.3-14.61,54.89-24.49,105.83-21.52c20.72,1.18,38.89,14.81,54.49,1.38
				C1337.28,299.44,1420.8,216.72,1445.67,212.18L1445.67,212.18z"/>
			<path class="st5" d="M1115.24,446.73c7.45-4.83,18.36-1.08,24.27,8.03c6.01,9.28,4.88,20.6-2.57,25.42
				c-5.79,3.76-14.04,2.29-20-3.26c6.58-4.74,10.59-10.16,9.2-12.32c-1.5-2.31-8.16-0.59-15.33,3.6
				C1107.29,459.88,1108.95,450.81,1115.24,446.73L1115.24,446.73z"/>
		</g>
		<path class="st6" d="M748.36,936.34c88.05,33.76,177.88,24.68,269.49-25.67c-49.16,43.63-98.51,73.24-148.27,88.84
			c137.81,27.05,217.17,67.52,242.44,118.65c-65.15-31-115.5-52.12-151.43-62.98c46.39,19.94,98.72,47.58,157.15,82.92
			c0.99,0.59,1.58,1.38,1.78,2.56c1.97,10.66,1.78,21.72-0.39,33.17c-0.59,3.35-1.19,6.71-2.18,9.87c-0.2,1.18-1.18,2.17-2.37,2.76
			c-1.18,0.39-2.37,0.39-3.56-0.39c-75.42-45.8-140.96-80.55-196.24-103.85c50.15,28.04,107.6,65.74,172.75,113.33
			c5.92,4.34,9.48,10.26,10.27,17.57c0.79,7.5-1.18,14.02-5.92,19.74c-7.11,8.49-15.6,15.99-24.87,22.51
			c-9.48,6.71-21.91,6.32-31-1.18c-86.67-71.08-164.65-126.95-234.14-167.81c64.36,48.56,131.88,104.24,202.36,167.22
			c5.13,4.54,7.11,11.25,5.33,17.96s-6.91,11.46-13.62,12.84c-18.17,3.55-37.31,5.32-56.47,5.52c-15.4,0.21-28.63-5.32-39.48-16.19
			c-26.26-26.06-55.09-56.26-86.67-90.22c21.52,35.54,40.87,66.73,58.24,93.78c0.79,1.38,0.79,3.16-0.2,4.54
			c-0.79,1.19-2.37,1.98-3.94,1.59c-17.97-3.36-35.34-7.9-51.13-13.62c-13.03-4.54-22.51-13.62-27.44-26.46
			c-8.09-20.93-15.2-42.25-21.52-63.97c2.56,22.32,5.33,44.03,8.88,65.15c0.2,1.58-0.59,2.96-1.78,3.95c-1.38,0.79-2.97,0.79-4.35,0
			C654.39,1176.01,708.48,983.72,748.36,936.34L748.36,936.34z"/>
		<g>
			
				<linearGradient id="SVGID_00000001666011198212658830000008893816445998879420_" gradientUnits="userSpaceOnUse" x1="829.6384" y1="687" x2="986.6946" y2="687">
				<stop  offset="0" style="stop-color:#197121"/>
				<stop  offset="1" style="stop-color:#239A32"/>
			</linearGradient>
			<path style="fill:url(#SVGID_00000001666011198212658830000008893816445998879420_);" d="M832.83,606.28
				c-8.82,18.89-5.9,57.07,96.42,60.02c0,0-39.35,40.34-58.05,50.18c-18.69,9.84-32.46,7.87-17.7,37.39
				c14.75,29.52,17.7,20.66,21.64,19.68c3.94-0.98,3.46-19.68,4.68-25.58c1.22-5.9,97.64-65.92,106.5-87.56
				C995.17,638.75,846.6,576.76,832.83,606.28z"/>
			<path class="st8" d="M891.09,697.6c-7.62,6.26-14.83,11.56-20.47,14.51c-22.17,11.68-38.5,9.34-21,44.35
				c17.5,35.01,21,24.51,25.67,23.34c4.67-1.16,4.11-23.34,5.55-30.34c0.43-2.07,10.79-9.8,25.4-20.28
				C902.85,716.73,897.61,705.92,891.09,697.6z"/>
			<g>
				<g>
					<path class="st8" d="M919.58,614.76c-17.92,17.53-48.3,27.74-82.06,25.54c5.79,6.58,15.32,12.68,30.12,17.36
						c31.35-2.33,57.79-15.52,70.93-34.85C932.47,619.99,926.07,617.29,919.58,614.76z"/>
					<path class="st8" d="M921.57,673.98c7.52-0.69,15.22-2.02,22.99-4.05c14.9-3.9,28.31-9.95,39.74-17.36
						c-2.8-3.9-7.95-8.3-14.77-12.87c-11.75,7.88-25.72,14.28-41.29,18.35c-13.99,3.66-27.74,4.96-40.61,4.38
						c11.6,2.03,25.34,3.4,41.61,3.87C929.25,666.3,926.24,669.38,921.57,673.98z"/>
					<path class="st8" d="M957.57,689.39c-6.59,0.05-13.34-0.37-20.21-1.33c-8.56-1.2-16.68-3.22-24.35-5.81
						c-3.05,2.9-6.35,5.99-9.78,9.12c10.33,5.68,22.1,10.13,34.95,12.85C944.89,699.26,951.49,694.25,957.57,689.39z"/>
				</g>
			</g>
		</g>
		<g>
			
				<linearGradient id="SVGID_00000159450787336643275360000005720132223978134184_" gradientUnits="userSpaceOnUse" x1="776.7173" y1="622.8953" x2="920.4057" y2="447.6659">
				<stop  offset="0" style="stop-color:#197121"/>
				<stop  offset="1" style="stop-color:#239A32"/>
			</linearGradient>
			<path style="fill:url(#SVGID_00000159450787336643275360000005720132223978134184_);" d="M920.52,439.21
				c0,0,46.43,44.52,37.14,95.6c-9.28,51.08-31.67,82.5-31.67,82.5s-51.96,54.61-108.55,22.38c-68.85-39.21-97.36-124.2-97.36-124.2
				s66.3,23.08,104.09-38.31C849.85,435.5,920.52,439.21,920.52,439.21z"/>
			<g>
				<g>
					<g>
						<path class="st8" d="M859.53,557.03l15.75,14.95c0,0-27.08,32.69-42.03,40.16c-14.95,7.47-12.61-10.92-12.61-10.92
							L859.53,557.03z"/>
						<path class="st8" d="M865.25,573.84c0,0,22.73,17.75,27.59,30.82c4.86,13.08-31.57,23.36-42.78,22.42
							c-11.21-0.94-20.05-18.68-18.43-23.35C833.25,599.06,865.25,573.84,865.25,573.84z"/>
					</g>
				</g>
				
					<radialGradient id="SVGID_00000024684871800222505890000011474172820911445671_" cx="920.5515" cy="565.8598" r="6.4821" gradientTransform="matrix(-0.8086 0.5884 0.5884 0.8086 1260.9181 -409.8005)" gradientUnits="userSpaceOnUse">
					<stop  offset="0" style="stop-color:#FFEE99"/>
					<stop  offset="1" style="stop-color:#FFC732"/>
				</radialGradient>
				<path style="fill:url(#SVGID_00000024684871800222505890000011474172820911445671_);" d="M845.24,596.37
					c2.23,3.06,6.52,3.74,9.59,1.51c3.06-2.23,3.73-6.52,1.51-9.58c-2.23-3.07-6.52-3.74-9.58-1.51
					C843.69,589.01,843.01,593.3,845.24,596.37z"/>
			</g>
		</g>
		<g>
			
				<linearGradient id="SVGID_00000009592588018511469380000002980232985053324447_" gradientUnits="userSpaceOnUse" x1="332.6248" y1="621.0229" x2="750.5137" y2="435.2927">
				<stop  offset="0" style="stop-color:#058744"/>
				<stop  offset="0.2606" style="stop-color:#0C8B49"/>
				<stop  offset="0.652" style="stop-color:#219557"/>
				<stop  offset="1" style="stop-color:#39A168"/>
			</linearGradient>
			<path style="fill:url(#SVGID_00000009592588018511469380000002980232985053324447_);" d="M277.3,544.45
				c-2.56-0.2-5.13-0.39-7.7-0.6c-16.19-1.18-30.01-9.28-38.69-23.1c-5.33-8.29-8.29-17.57-9.47-27.44l-0.59-4.54
				c-2.96-0.39-5.92-0.79-8.89-0.99c-28.62-2.76-51.72-21.12-61-48.17c-0.8-2.56-1.58-5.33-2.37-7.9L147,425.6
				c-26.26-5.14-45.41-28.24-45.21-55.48c0-1.58,0-3.16,0.19-4.74l0.2-2.97c-25.46-4.54-46.59-18.55-61.4-40.47
				c-3.16-4.54-5.92-9.28-8.69-14.22l-3.75-7.1c164.65,25.66,330.88,68.5,479.75,138c135.23,63.18,262.97,152.42,347.67,276.99
				c7.5,47.77-6.91,99.11-29.22,141.16c-8.09,4.73-17.37,7.3-27.25,7.3c-20.93-0.2-45.8-2.37-64.95-11.85
				c-4.54-2.37-7.9-6.12-9.48-10.86c-0.2-0.59-0.2-0.99-0.39-1.58c-7.3,5.13-15.99,8.49-25.46,9.68
				c-21.52,2.56-43.24,0.2-62.39-10.86c-4.93-2.96-8.29-7.9-9.08-13.82c0-0.99-0.2-2.17,0-3.16c-10.66,7.7-22.9,11.26-36.33,10.46
				c-21.91-1.38-47.18-6.31-63.97-21.72c-4.14-3.94-6.12-9.28-5.73-14.81c0.2-3.95,1.58-7.3,3.75-10.26
				c-16.98,8.09-36.13,8.49-54.09,0.79c-9.28-4.14-18.96-9.28-26.26-16.58c-3.94-4.15-5.73-9.67-5.13-15.4
				c0.79-5.73,3.75-10.46,8.68-13.62c10.47-6.32,20.94-12.44,31.4-18.36l-4.94,0.39c-24.48,1.37-46.59-14.42-53.11-38.1
				c-0.2-0.8-0.59-1.59-0.79-2.57v-0.39c-7.7-1.18-14.81-4.54-21.13-9.67c-9.87-8.09-15.6-18.76-16.98-31.4c0-0.98,0-1.78-0.2-2.76
				v-0.2c-2.56,0-5.14,0-7.71,0c-21.51,0-39.68-15.4-43.43-36.52c-0.39-1.97-0.59-3.95-0.8-6.12l-0.19-2.37
				c-23.89-1.18-43.63-16.59-50.74-39.29c-0.39-1.18-0.79-2.16-0.99-3.16L277.3,544.45z"/>
			<path class="st12" d="M478.48,711.67l-4.15,0.2c-19.75,1.18-36.92-11.25-42.24-30.21c-0.2-0.79-0.39-1.58-0.6-2.37
				c38.31-5.92,78.97-11.25,122.41-16.19c-41.46,1.18-81.73,3.75-121.02,8.09c-9.88,1.19-18.56-1.37-26.26-7.7
				c-7.7-6.12-12.05-14.21-13.03-24.08c0-0.8-0.2-1.58-0.2-2.37c51.73-1.18,107.21-0.99,166.43,0.79
				c-63.38-7.3-124.97-10.86-184.8-11.05c-16.38,0-30.2-11.65-32.97-27.84c-0.39-1.58-0.59-3.35-0.59-5.14
				c66.73,1.97,140.37,6.91,220.72,15.2c-79.17-15-156.16-24.08-230.79-27.05c-19.55-0.98-35.54-13.43-41.46-31.98
				c-0.2-0.99-0.59-1.97-0.79-2.96c79.56,6.11,169.59,17.96,270.28,35.54c-99.7-26.26-196.05-42.65-289.04-49.36
				c-12.83-0.79-23.68-7.3-30.59-18.17c-4.15-6.52-6.72-14.22-7.9-23.1c94.96,11.06,206.9,32.97,335.43,65.94
				c-122.01-42.64-240.07-69.49-354.38-80.75c-24.28-2.37-43.83-17.77-51.92-40.87c-0.79-2.37-1.58-4.93-2.18-7.31
				c110.36,12.24,248.17,45.22,413.81,98.52c-143.92-60.41-283.7-97.53-419.53-111.74c-23.29-2.37-40.86-22.11-40.67-45.6
				c0-1.19,0-2.56,0.2-3.95c119.24,12.24,277.58,57.85,475,136.82c-162.68-81.74-321.8-131.88-477.57-150.04
				c-25.47-2.97-46.2-15.6-60.42-36.92c-2.96-4.15-5.52-8.69-8.09-13.43c393.67,42.25,681.52,172.15,804.32,380.24
				c27.04,45.61,14.22,103.85-9.68,148.46c-7.3,14.02-20.93,22.11-36.92,22.11c-26.06-0.2-46.2-3.75-60.21-10.66
				c-1.97-0.99-3.36-2.56-3.95-4.74c-0.79-2.17-0.6-4.14,0.39-6.12c23.69-44.62,51.13-88.64,82.52-131.88
				c-32.97,38.9-62.19,78.18-87.46,118.06c-7.5,11.85-18.95,19.15-32.77,20.73c-21.91,2.77-40.48-0.59-55.68-9.47
				c-2.37-1.18-3.55-3.35-3.94-5.92c-0.39-2.37,0.39-4.73,2.37-6.52c48.96-48.37,104.83-92.79,167.22-133.26
				c-69.29,37.71-130.3,79.96-183.21,126.55c-9.28,8.3-20.33,12.05-32.77,11.26c-26.46-1.58-45.41-7.9-57.25-18.96
				c-1.78-1.58-2.56-3.75-2.37-6.31c0-2.38,1.18-4.35,3.16-5.92c75.62-54.29,161.89-98.72,258.83-133.07
				c-101.28,27.44-190.32,65.74-266.93,114.9c-15.99,10.27-34.35,11.65-51.72,4.15c-10.27-4.35-17.97-9.08-22.91-14.21
				c-1.78-1.78-2.56-4.15-2.17-6.52c0.2-2.56,1.58-4.54,3.75-5.92c94.96-58.04,203.15-99.7,324.77-124.77
				C666.23,639.21,565.94,668.03,478.48,711.67L478.48,711.67z"/>
		</g>
		<g>
			
				<linearGradient id="SVGID_00000165935084437989170270000017281731265229469076_" gradientUnits="userSpaceOnUse" x1="1221.5426" y1="534.8462" x2="1428.5569" y2="534.8462">
				<stop  offset="0" style="stop-color:#CFB878"/>
				<stop  offset="1" style="stop-color:#DDA087"/>
			</linearGradient>
			<path style="fill:url(#SVGID_00000165935084437989170270000017281731265229469076_);" d="M1344.24,330.82
				c0,0,81.62-50.32,56.19,107.15c-21.48,132.98-181.09,176-178.86,316.86c0,0,2.22-51.42,24.59-64.85c0,0,8.95,2.25,6.71,8.95
				c0,0-29.08-33.54,98.37-134.15c127.45-100.61,73.76-260.55,6.69-249.37L1344.24,330.82z"/>
			<path class="st14" d="M1116.66,972.33c0,0,26.68-62.16,92.8-96.29c0,0-99.17,94.89-19.19,200.46c0,0-36.26-39.46-40.52-71.45
				C1145.48,973.06,1133.7,958.8,1116.66,972.33z"/>
			
				<linearGradient id="SVGID_00000149371970381070349680000009799886004701088900_" gradientUnits="userSpaceOnUse" x1="1116.6584" y1="654.0765" x2="1383.7961" y2="654.0765">
				<stop  offset="0" style="stop-color:#D3B892"/>
				<stop  offset="1" style="stop-color:#E9BDBD"/>
			</linearGradient>
			<path style="fill:url(#SVGID_00000149371970381070349680000009799886004701088900_);" d="M1171.99,892.53
				c-29.46,30.22-46.13,57.35-55.33,79.8c9.57-18.53,22.51-35.14,38.05-49.1c3.34-3.48,7.56-6.86,12.52-10.25
				c10.93-8.15,22.86-15.08,35.6-20.62c43.41-23.53,103.2-56.3,148.03-125.04c67.08-102.85,15.65-187.8-13.41-299.28
				c-29.06-111.48-17.89-132.22-17.89-132.22l-33.54,31.76c-8.95,25.06,22.36,162.75,15.65,285.96
				C1294.96,776.75,1259.19,803.1,1171.99,892.53z"/>
		</g>
		
			<linearGradient id="SVGID_00000110469486400876855840000005908790748936626596_" gradientUnits="userSpaceOnUse" x1="869.1179" y1="538.5825" x2="987.0452" y2="538.5825">
			<stop  offset="0" style="stop-color:#FFDDAD"/>
			<stop  offset="0.3635" style="stop-color:#FFDBAA"/>
			<stop  offset="0.6201" style="stop-color:#FFD3A1"/>
			<stop  offset="0.8432" style="stop-color:#FFC691"/>
			<stop  offset="0.9015" style="stop-color:#FFC18C"/>
			<stop  offset="1" style="stop-color:#E6C69F"/>
		</linearGradient>
		<path style="fill:url(#SVGID_00000110469486400876855840000005908790748936626596_);" d="M907.87,491.17
			c0.02-0.13-0.27,0.86-0.29,1.38c-0.03,0.33-0.05,0.73-0.09,1.21c-0.03,0.64-0.05,1.37-0.08,2.2c-0.12,1.61,0.03,3.75-0.1,6.11
			c0.05,2.39-0.14,5.12-0.04,8.11c-0.07,3.01,0.22,6.23,0.6,9.64c0.31,3.43,1.12,6.94,1.84,10.62c1.11,3.52,1.84,7.41,3.54,10.93
			c0.78,1.79,1.42,3.69,2.3,5.47l2.91,5.22c1.7,3.71,4.6,6.55,6.74,9.98c2.45,3.18,5.4,5.9,7.98,8.85c2.87,2.65,5.97,4.9,8.71,7.38
			c2.73,2.48,5.96,4.02,8.62,5.94c2.73,1.82,5.2,3.64,7.71,4.71c2.4,1.27,4.59,2.16,6.26,3.3c3.27,2.43,4.41,6.67,4.41,6.67
			l0.1,0.34c0.65,2.41-0.26,4.87-2.1,6.33c0,0.01-3.31,2.62-7.84,2.24c-2.22-0.28-4.76-1.1-7.78-1.8c-3.05-0.6-6.28-1.96-9.9-3.33
			c-3.54-1.52-7.62-2.7-11.54-4.94c-3.92-2.2-8.15-4.46-12.3-7.21c-3.91-3.09-8.24-6.05-12.15-9.67c-3.65-3.86-7.92-7.42-11-11.96
			l-4.95-6.58c-1.54-2.26-2.82-4.66-4.22-6.99c-2.93-4.62-4.9-9.55-7.09-14.26c-1.8-4.8-3.59-9.52-4.75-14.09
			c-1.26-4.56-2.24-8.92-2.9-13c-0.9-4.06-0.98-7.87-1.33-11.22c-0.02-3.41-0.05-6.31,0.19-8.83c0.09-1.24,0.17-2.35,0.25-3.33
			c0.12-1.12,0.23-2.07,0.32-2.85c0.18-1.69,0.13-1.87,0.13-2c1.5-10.45,11.19-17.72,21.64-16.21
			C902.11,471.03,909.38,480.72,907.87,491.17z"/>
		<g>
			
				<radialGradient id="SVGID_00000153682172143773254150000009431470647723452824_" cx="901.84" cy="343.126" r="126.2816" gradientUnits="userSpaceOnUse">
				<stop  offset="0" style="stop-color:#FFDDAD"/>
				<stop  offset="0.3635" style="stop-color:#FFDBAA"/>
				<stop  offset="0.6201" style="stop-color:#FFD3A1"/>
				<stop  offset="0.8432" style="stop-color:#FFC691"/>
				<stop  offset="0.9015" style="stop-color:#FFC18C"/>
				<stop  offset="1" style="stop-color:#E6C69F"/>
			</radialGradient>
			<path style="fill:url(#SVGID_00000153682172143773254150000009431470647723452824_);" d="M1032.79,296.96
				c-7.53,6.45-16.43,10.83-25.83,13c-14.43-50.52-60.85-87.55-116-87.55c-66.67,0-120.72,54.05-120.72,120.72
				c0,66.67,54.05,120.73,120.72,120.73c63.46,0,115.37-49,120.24-111.2c4.71-3.84,8.94-8.45,12.44-13.81
				C1032.05,325.95,1034.86,311.07,1032.79,296.96z"/>
			<path d="M937.97,202.09c0,0,34.82,27.86,10.45,57.46c-24.38,29.6-40.05,13.93-52.24,34.82c0,0-1.74-33.08,10.45-36.56
				c0,0-19.15,12.19-22.64,48.75c-3.48,36.56-38.31,36.56-43.53,36.56c0,0,15.67-15.67,13.93-38.31c0,0-12.19,36.56-22.64,38.31
				c0,0,17.41,10.45,22.64,24.38c0,0-29.6-15.67-43.53-10.45c0,0,0,24.38,8.71,34.82c8.71,10.45,20.89,41.79,5.22,62.68
				c0,0,0-20.89-5.22-24.38c0,0-1.74,33.08-19.15,38.31c0,0,8.71-31.34-10.45-45.27c-19.15-13.93-40.05-57.46-34.82-87.93
				C760.37,304.82,788.23,181.19,937.97,202.09z"/>
			<path d="M964.09,310.49c0,8.9-7.22,16.12-16.12,16.12c-8.91,0-16.13-7.22-16.13-16.12c0-8.9,7.22-16.12,16.13-16.12
				C956.87,294.37,964.09,301.59,964.09,310.49z"/>
			<path class="st18" d="M940.36,355.4c0.57,6.88-7.58,13.17-18.21,14.06c-10.62,0.88-19.71-3.97-20.28-10.86
				c-0.57-6.88,7.58-13.18,18.21-14.06C930.7,343.65,939.78,348.52,940.36,355.4z"/>
			<path class="st19" d="M908.42,415.3c9.03,25.69,62.89,22.64,66.79-2.25c0.33-2.11-0.33-4.24-1.77-6.3
				c-0.71-1.05-1.62-2.07-2.71-3.04c-1.66-0.36-3.28-0.78-4.85-1.24c-13.56,2.47-29.3-10.49-44.58-10.28
				c-1.33,0.4-2.6,0.88-3.79,1.46C910.42,397.1,906.27,403.88,908.42,415.3C911.64,424.48,908.14,413.83,908.42,415.3z"/>
		</g>
		<g>
			<path class="st20" d="M937.97,202.09c0,0-180.66,109.75-171.31,190.42c0,0-25.55-33.57-37.93-72.7
				c-12.39-39.14-90.45-33.35-103.49-15.54C625.25,304.27,740.3,128.51,937.97,202.09z"/>
			<g>
				
					<linearGradient id="SVGID_00000009562151071333604210000009210217606949198251_" gradientUnits="userSpaceOnUse" x1="746.2798" y1="351.8922" x2="805.4804" y2="186.4786">
					<stop  offset="0" style="stop-color:#197121"/>
					<stop  offset="1" style="stop-color:#239A32"/>
				</linearGradient>
				<path style="fill:url(#SVGID_00000009562151071333604210000009210217606949198251_);" d="M937.97,202.09
					c0,0-180.66,109.75-171.31,190.42c0,0-25.55-33.57-37.93-72.7c-12.39-39.14-90.45-33.35-103.49-15.54
					C625.25,304.27,740.3,128.51,937.97,202.09z"/>
				<g>
					<g>
						<g>
							<path class="st8" d="M689.13,238.55c-6.6,17.48-11.86,35.66-13.54,52.1c8.07,0.31,16.13,1.55,23.54,3.83
								c5.58-28.16,22.7-60.73,37.88-85.56C718.98,217.7,702.96,227.99,689.13,238.55z"/>
						</g>
						<g>
							<path class="st8" d="M868.53,185.45c-25.46-2.66-49.07-1.16-70.84,3.08c-29.48,33.19-63.71,77.57-77.61,117.6
								c3.88,3.78,6.94,8.25,8.65,13.67c3.59,11.36,8.3,22.2,13.16,31.94C748.14,294,826.6,220.77,868.53,185.45z"/>
						</g>
					</g>
				</g>
			</g>
			<g>
				
					<radialGradient id="SVGID_00000147907266951325370350000008299005022662268807_" cx="912.4288" cy="191.5103" r="22.3893" gradientTransform="matrix(-0.8086 0.5884 0.5884 0.8086 1260.9181 -409.8005)" gradientUnits="userSpaceOnUse">
					<stop  offset="0" style="stop-color:#FFEE99"/>
					<stop  offset="1" style="stop-color:#FFC732"/>
				</radialGradient>
				<path style="fill:url(#SVGID_00000147907266951325370350000008299005022662268807_);" d="M621.06,305.99
					c7.71,10.58,22.52,12.92,33.11,5.22c10.58-7.7,12.92-22.52,5.22-33.1c-7.7-10.58-22.52-12.92-33.1-5.22
					C615.69,280.59,613.36,295.41,621.06,305.99z"/>
				<path d="M616.69,293.97c-0.23-2.78,0.06-5.55,0.8-8.22c3.11,5.52,12.58,5.38,17.79,4.81c0.4-1.62,1.21-3.13,2.62-4.15
					c3.41-2.48,8.35-1.51,11.02,2.17c2.67,3.67,2.08,8.67-1.33,11.14c-3.41,2.48-8.34,1.51-11.01-2.17
					c-0.06-0.08-0.08-0.19-0.14-0.28C631.37,297.83,622.79,297.93,616.69,293.97z"/>
			</g>
		</g>
		<g>
			
				<linearGradient id="SVGID_00000067921217648135713850000010298535122383006102_" gradientUnits="userSpaceOnUse" x1="796.4039" y1="300.3095" x2="684.3023" y2="284.8473" gradientTransform="matrix(0.9893 0.0541 -0.1241 0.8012 101.8337 94.6801)">
				<stop  offset="0" style="stop-color:#FFDDAD"/>
				<stop  offset="0.3635" style="stop-color:#FFDBAA"/>
				<stop  offset="0.6201" style="stop-color:#FFD3A1"/>
				<stop  offset="0.8432" style="stop-color:#FFC691"/>
				<stop  offset="0.9015" style="stop-color:#FFC18C"/>
				<stop  offset="1" style="stop-color:#E6C69F"/>
			</linearGradient>
			<path style="fill:url(#SVGID_00000067921217648135713850000010298535122383006102_);" d="M837.82,381.89
				c14.62-14.36-30.14-37.49-83.75-29.57c-53.6,7.92-25.83,6.36-10.39,12.44C759.13,370.85,817.73,401.64,837.82,381.89z"/>
			<path class="st18" d="M813.78,384.05c-0.38-0.46-0.74-0.9-1.19-1.35c1.95-0.56,3.7-1.43,5.07-2.88
				c8.57-9.07-18.38-26.36-50.28-23.15c-11.76,1.18-16.91,1.92-18.3,2.63c-1.99-1.14,1.62-2.01,19.51-3.8
				c34.16-3.43,63.04,15.08,53.85,24.8C820.23,382.62,817.24,383.74,813.78,384.05z"/>
		</g>
	</g>
</g>
</svg>
